<svg width="40" height="47" viewBox="0 0 40 47" fill="none" xmlns="http://www.w3.org/2000/svg">
<path d="M34.3997 3.69598H21.1157L22.2557 2.49598C22.5104 2.20949 22.6457 1.83637 22.634 1.45324C22.6222 1.07009 22.4642 0.70601 22.1923 0.43573C21.9205 0.165449 21.5555 0.00948698 21.1724 -0.000137022C20.7892 -0.00976102 20.4169 0.127684 20.1317 0.383977L16.5317 3.98398C16.3921 4.12331 16.2812 4.28884 16.2056 4.47107C16.13 4.65331 16.091 4.84868 16.091 5.04598C16.091 5.24329 16.13 5.43865 16.2056 5.62088C16.2812 5.80312 16.3921 5.96864 16.5317 6.10798L20.1317 9.70798C20.2715 9.84899 20.4379 9.96083 20.6213 10.0371C20.8046 10.1133 21.0013 10.1523 21.1997 10.152C21.3967 10.1534 21.5918 10.1149 21.7735 10.0385C21.955 9.9622 22.1191 9.84973 22.2557 9.70798C22.3951 9.56966 22.5056 9.40516 22.5811 9.22391C22.6565 9.04268 22.6954 8.8483 22.6954 8.65198C22.6954 8.45566 22.6565 8.26129 22.5811 8.08004C22.5056 7.89881 22.3951 7.73429 22.2557 7.59598L21.3077 6.64798H34.3997C34.9558 6.65113 35.4881 6.8734 35.8813 7.26653C36.2744 7.65968 36.4966 8.192 36.4997 8.74798V37.5C36.4966 38.056 36.2744 38.5882 35.8813 38.9814C35.4881 39.3745 34.9558 39.5968 34.3997 39.6H28.3997C28.0019 39.6 27.6205 39.7581 27.3391 40.0393C27.0578 40.3206 26.8997 40.7022 26.8997 41.1C26.8997 41.4978 27.0578 41.8794 27.3391 42.1606C27.6205 42.4419 28.0019 42.6 28.3997 42.6H34.3997C35.7514 42.5968 37.0468 42.0585 38.0026 41.1027C38.9582 40.147 39.4966 38.8516 39.4997 37.5V8.79598C39.4966 7.44434 38.9582 6.14899 38.0026 5.19323C37.0468 4.23749 35.7514 3.69914 34.3997 3.69598Z" fill="#1D1C1D"/>
<path d="M19.832 36.444C19.547 36.1876 19.1745 36.0502 18.7914 36.0598C18.4082 36.0694 18.0432 36.2254 17.7715 36.4957C17.4996 36.766 17.3415 37.1301 17.3298 37.5132C17.318 37.8963 17.4533 38.2695 17.708 38.556L18.752 39.6H5.6C5.04401 39.5968 4.5117 39.3745 4.11856 38.9814C3.7254 38.5882 3.50315 38.0559 3.5 37.5V8.79594C3.50315 8.23995 3.7254 7.70763 4.11856 7.31449C4.5117 6.92134 5.04401 6.69909 5.6 6.69594H11.6C11.9978 6.69594 12.3794 6.5379 12.6606 6.25659C12.9419 5.97529 13.1 5.59375 13.1 5.19592C13.1 4.79811 12.9419 4.41657 12.6606 4.13527C12.3794 3.85396 11.9978 3.69592 11.6 3.69592H5.6C4.24836 3.6991 2.95301 4.23744 1.99725 5.19319C1.0415 6.14893 0.503165 7.4443 0.5 8.79594V37.5C0.503165 38.8516 1.0415 40.1469 1.99725 41.1027C2.95301 42.0585 4.24836 42.5968 5.6 42.6H18.8L17.756 43.644C17.5487 43.8529 17.4075 44.1183 17.3501 44.4069C17.2925 44.6956 17.3213 44.9947 17.4324 45.2673C17.5437 45.5397 17.7327 45.7735 17.9759 45.9393C18.219 46.1052 18.5057 46.1958 18.8 46.2C18.9969 46.2013 19.1921 46.1628 19.3736 46.0864C19.5552 46.0101 19.7193 45.8977 19.856 45.756L23.456 42.156C23.5956 42.0166 23.7065 41.851 23.7821 41.6688C23.8577 41.4865 23.8967 41.2912 23.8967 41.094C23.8967 40.8966 23.8577 40.7013 23.7821 40.519C23.7065 40.3368 23.5956 40.1713 23.456 40.032L19.832 36.444Z" fill="#1D1C1D"/>
<path d="M18.2841 13.1278C17.9099 13.0789 17.5311 13.1764 17.2271 13.4C16.923 13.6236 16.7169 13.956 16.6521 14.3278L16.2561 17.0998H12.7281C12.3462 17.0998 11.9799 17.2515 11.7099 17.5216C11.4398 17.7916 11.2881 18.1579 11.2881 18.5398C11.2881 18.9217 11.4398 19.288 11.7099 19.558C11.9799 19.828 12.3462 19.9798 12.7281 19.9798H15.8361L15.0801 25.0918H11.6001C11.4008 25.0735 11.1998 25.0971 11.01 25.1608C10.8203 25.2246 10.646 25.3272 10.4981 25.4622C10.3503 25.597 10.2321 25.7614 10.1513 25.9446C10.0705 26.1277 10.0288 26.3256 10.0288 26.5258C10.0288 26.7259 10.0705 26.9239 10.1513 27.1071C10.2321 27.2902 10.3503 27.4545 10.4981 27.5895C10.646 27.7243 10.8203 27.8271 11.01 27.8908C11.1998 27.9546 11.4008 27.9781 11.6001 27.9598H14.6241L14.1561 31.4998C14.1041 31.8745 14.2004 32.2548 14.4245 32.5596C14.6486 32.8644 14.9829 33.0697 15.3561 33.1318H15.5721C15.9117 33.1309 16.2401 33.01 16.4993 32.7904C16.7583 32.5708 16.9314 32.2666 16.9881 31.9318L17.6001 27.9598H21.3921L20.8401 31.4998C20.7881 31.8745 20.8844 32.2548 21.1085 32.5596C21.3326 32.8644 21.6669 33.0697 22.0401 33.1318H22.2561C22.5957 33.1309 22.9241 33.01 23.1833 32.7904C23.4423 32.5708 23.6154 32.2666 23.6721 31.9318L24.2481 28.0318H27.2601C27.6177 27.9991 27.9503 27.8338 28.1924 27.5685C28.4346 27.3031 28.5687 26.9569 28.5687 26.5978C28.5687 26.2386 28.4346 25.8924 28.1924 25.6272C27.9503 25.3618 27.6177 25.1965 27.2601 25.1638H24.6801L25.4241 20.0518H28.4001C28.7916 20.0518 29.1669 19.8963 29.4438 19.6195C29.7206 19.3426 29.8762 18.9673 29.8762 18.5758C29.8762 18.1843 29.7206 17.8089 29.4438 17.5321C29.1669 17.2554 28.7916 17.0998 28.4001 17.0998H25.8801L26.2281 14.7598C26.2802 14.3851 26.1839 14.0048 25.9598 13.7C25.7355 13.3952 25.4013 13.1899 25.0281 13.1278C24.6548 13.076 24.276 13.1727 23.973 13.397C23.6702 13.6214 23.4674 13.9556 23.4081 14.3278L22.9401 17.0998H19.1601L19.4961 14.7598C19.551 14.3827 19.4544 13.9993 19.2272 13.6934C19.0001 13.3875 18.6609 13.1841 18.2841 13.1278ZM22.5201 19.9798L21.7761 25.0918H17.9841L18.8001 19.9798H22.5201Z" fill="#1D1C1D"/>
</svg>
