<svg width="25" height="24" viewBox="0 0 25 24" fill="none" xmlns="http://www.w3.org/2000/svg">
<g clip-path="url(#clip0_3_354)">
<path d="M17.5994 8C17.5994 8 19.0994 9.5 19.0994 12C19.0994 14.5 17.5994 16 17.5994 16M20.5994 5C20.5994 5 23.0994 7.5 23.0994 12C23.0994 16.5 20.5994 19 20.5994 19M6.59937 8C6.59937 8 5.09937 9.5 5.09937 12C5.09937 14.5 6.59937 16 6.59937 16M3.59937 5C3.59937 5 1.09937 7.5 1.09937 12C1.09937 16.5 3.59937 19 3.59937 19" stroke="#FFBF35" stroke-width="2" stroke-linecap="round" stroke-linejoin="round"/>
<path d="M12.0994 13C12.3646 13 12.6189 12.8946 12.8065 12.7071C12.994 12.5196 13.0994 12.2652 13.0994 12C13.0994 11.7348 12.994 11.4804 12.8065 11.2929C12.6189 11.1054 12.3646 11 12.0994 11C11.8341 11 11.5798 11.1054 11.3923 11.2929C11.2047 11.4804 11.0994 11.7348 11.0994 12C11.0994 12.2652 11.2047 12.5196 11.3923 12.7071C11.5798 12.8946 11.8341 13 12.0994 13Z" fill="#FFBF35" stroke="#FFBF35" stroke-width="2" stroke-linecap="round" stroke-linejoin="round"/>
</g>
<defs>
<clipPath id="clip0_3_354">
<rect width="24" height="24" fill="white" transform="translate(0.0993652)"/>
</clipPath>
</defs>
</svg>
