<svg width="25" height="24" viewBox="0 0 25 24" fill="none" xmlns="http://www.w3.org/2000/svg">
<path d="M9.09937 17V18C9.09937 18.7956 9.41544 19.5587 9.97804 20.1213C10.5407 20.6839 11.3037 21 12.0994 21C12.895 21 13.6581 20.6839 14.2207 20.1213C14.7833 19.5587 15.0994 18.7956 15.0994 18V17M10.0994 5C10.0994 4.46957 10.3101 3.96086 10.6852 3.58579C11.0602 3.21071 11.5689 3 12.0994 3C12.6298 3 13.1385 3.21071 13.5136 3.58579C13.8887 3.96086 14.0994 4.46957 14.0994 5C15.2478 5.54303 16.2268 6.38833 16.9314 7.4453C17.6361 8.50227 18.0398 9.73107 18.0994 11V14C18.1746 14.6217 18.3948 15.2171 18.7422 15.7381C19.0896 16.2592 19.5544 16.6914 20.0994 17H4.09937C4.6443 16.6914 5.10917 16.2592 5.45655 15.7381C5.80393 15.2171 6.02411 14.6217 6.09937 14V11C6.15893 9.73107 6.56267 8.50227 7.26731 7.4453C7.97196 6.38833 8.95096 5.54303 10.0994 5Z" stroke="#FFBF35" stroke-width="2" stroke-linecap="round" stroke-linejoin="round"/>
</svg>
