<svg width="21" height="20" viewBox="0 0 21 20" fill="none" xmlns="http://www.w3.org/2000/svg">
<path d="M12.999 11.6667H12.3407L12.1073 11.4417C12.9522 10.4617 13.4166 9.21058 13.4157 7.91667C13.4157 6.84535 13.098 5.7981 12.5028 4.90733C11.9076 4.01656 11.0616 3.3223 10.0719 2.91232C9.08211 2.50235 7.993 2.39508 6.94227 2.60408C5.89154 2.81309 4.92638 3.32897 4.16884 4.08651C3.41131 4.84404 2.89542 5.8092 2.68642 6.85993C2.47742 7.91066 2.58468 8.99977 2.99466 9.98954C3.40463 10.9793 4.0989 11.8253 4.98967 12.4205C5.88043 13.0157 6.92769 13.3333 7.99901 13.3333C9.34067 13.3333 10.574 12.8417 11.524 12.025L11.749 12.2583V12.9167L15.9157 17.075L17.1573 15.8333L12.999 11.6667ZM7.99901 11.6667C5.92401 11.6667 4.24901 9.99167 4.24901 7.91667C4.24901 5.84167 5.92401 4.16667 7.99901 4.16667C10.074 4.16667 11.749 5.84167 11.749 7.91667C11.749 9.99167 10.074 11.6667 7.99901 11.6667Z" fill="#687685"/>
</svg>
