<svg width="21" height="20" viewBox="0 0 21 20" fill="none" xmlns="http://www.w3.org/2000/svg">
<g clip-path="url(#clip0_3_348)">
<path fill-rule="evenodd" clip-rule="evenodd" d="M13.4327 12.5C14.521 12.5 15.4477 13.1958 15.791 14.1667H16.766C16.987 14.1667 17.199 14.2545 17.3553 14.4107C17.5116 14.567 17.5994 14.779 17.5994 15C17.5994 15.221 17.5116 15.433 17.3553 15.5893C17.199 15.7455 16.987 15.8333 16.766 15.8333H15.791C15.6189 16.3213 15.2996 16.7438 14.8772 17.0427C14.4548 17.3415 13.9501 17.502 13.4327 17.502C12.9153 17.502 12.4106 17.3415 11.9882 17.0427C11.5658 16.7438 11.2465 16.3213 11.0744 15.8333H3.4327C3.21168 15.8333 2.99972 15.7455 2.84344 15.5893C2.68716 15.433 2.59937 15.221 2.59937 15C2.59937 14.779 2.68716 14.567 2.84344 14.4107C2.99972 14.2545 3.21168 14.1667 3.4327 14.1667H11.0744C11.2469 13.6791 11.5663 13.257 11.9887 12.9585C12.411 12.66 12.9155 12.4999 13.4327 12.5ZM13.4327 14.1667C13.2117 14.1667 12.9997 14.2545 12.8434 14.4107C12.6872 14.567 12.5994 14.779 12.5994 15C12.5994 15.221 12.6872 15.433 12.8434 15.5893C12.9997 15.7455 13.2117 15.8333 13.4327 15.8333C13.6537 15.8333 13.8657 15.7455 14.022 15.5893C14.1782 15.433 14.266 15.221 14.266 15C14.266 14.779 14.1782 14.567 14.022 14.4107C13.8657 14.2545 13.6537 14.1667 13.4327 14.1667ZM6.76603 7.5C7.25686 7.49993 7.73684 7.64435 8.14614 7.91524C8.55544 8.18613 8.87595 8.57151 9.0677 9.02333L9.12353 9.16667H16.766C16.9784 9.1669 17.1827 9.24823 17.3372 9.39404C17.4916 9.53985 17.5846 9.73913 17.597 9.95116C17.6095 10.1632 17.5405 10.372 17.4041 10.5349C17.2678 10.6977 17.0744 10.8024 16.8635 10.8275L16.766 10.8333H9.12436C8.95636 11.3086 8.64868 11.722 8.24164 12.0193C7.83461 12.3166 7.34723 12.484 6.84341 12.4995C6.33959 12.515 5.84284 12.3779 5.41831 12.1061C4.99377 11.8344 4.66126 11.4407 4.46437 10.9767L4.4077 10.8333H3.4327C3.2203 10.8331 3.01601 10.7518 2.86156 10.606C2.70711 10.4602 2.61417 10.2609 2.60172 10.0488C2.58927 9.8368 2.65826 9.62802 2.79459 9.46514C2.93091 9.30226 3.12429 9.19759 3.3352 9.1725L3.4327 9.16667H4.4077C4.58021 8.6791 4.89963 8.25702 5.32199 7.95853C5.74434 7.66005 6.24885 7.49985 6.76603 7.5ZM6.76603 9.16667C6.54502 9.16667 6.33306 9.25446 6.17678 9.41074C6.0205 9.56702 5.9327 9.77899 5.9327 10C5.9327 10.221 6.0205 10.433 6.17678 10.5893C6.33306 10.7455 6.54502 10.8333 6.76603 10.8333C6.98705 10.8333 7.19901 10.7455 7.35529 10.5893C7.51157 10.433 7.59937 10.221 7.59937 10C7.59937 9.77899 7.51157 9.56702 7.35529 9.41074C7.19901 9.25446 6.98705 9.16667 6.76603 9.16667ZM13.4327 2.5C14.521 2.5 15.4477 3.19583 15.791 4.16667H16.766C16.987 4.16667 17.199 4.25446 17.3553 4.41074C17.5116 4.56702 17.5994 4.77899 17.5994 5C17.5994 5.22101 17.5116 5.43298 17.3553 5.58926C17.199 5.74554 16.987 5.83333 16.766 5.83333H15.791C15.6189 6.32128 15.2996 6.74381 14.8772 7.04268C14.4548 7.34155 13.9501 7.50204 13.4327 7.50204C12.9153 7.50204 12.4106 7.34155 11.9882 7.04268C11.5658 6.74381 11.2465 6.32128 11.0744 5.83333H3.4327C3.21168 5.83333 2.99972 5.74554 2.84344 5.58926C2.68716 5.43298 2.59937 5.22101 2.59937 5C2.59937 4.77899 2.68716 4.56702 2.84344 4.41074C2.99972 4.25446 3.21168 4.16667 3.4327 4.16667H11.0744C11.2469 3.6791 11.5663 3.25702 11.9887 2.95853C12.411 2.66005 12.9155 2.49985 13.4327 2.5ZM13.4327 4.16667C13.2117 4.16667 12.9997 4.25446 12.8434 4.41074C12.6872 4.56702 12.5994 4.77899 12.5994 5C12.5994 5.22101 12.6872 5.43298 12.8434 5.58926C12.9997 5.74554 13.2117 5.83333 13.4327 5.83333C13.6537 5.83333 13.8657 5.74554 14.022 5.58926C14.1782 5.43298 14.266 5.22101 14.266 5C14.266 4.77899 14.1782 4.56702 14.022 4.41074C13.8657 4.25446 13.6537 4.16667 13.4327 4.16667Z" fill="white"/>
</g>
<defs>
<clipPath id="clip0_3_348">
<rect width="20" height="20" fill="white" transform="translate(0.0993652)"/>
</clipPath>
</defs>
</svg>
