<svg width="25" height="24" viewBox="0 0 25 24" fill="none" xmlns="http://www.w3.org/2000/svg">
<path d="M11.9994 22L16.5494 10H18.6494L23.1994 22H21.0994L20.0494 18.95H15.1994L14.0994 22H11.9994ZM15.7994 17.2H19.3994L17.6494 12.25H17.5494L15.7994 17.2ZM4.09937 19L2.69937 17.6L7.74937 12.55C7.11603 11.85 6.5617 11.125 6.08637 10.375C5.61103 9.625 5.1987 8.83333 4.84937 8H6.94937C7.24937 8.6 7.57037 9.14167 7.91237 9.625C8.25437 10.1083 8.6667 10.6167 9.14937 11.15C9.8827 10.35 10.491 9.529 10.9744 8.687C11.4577 7.845 11.866 6.94933 12.1994 6H1.09937V4H8.09937V2H10.0994V4H17.0994V6H14.1994C13.8494 7.18333 13.3744 8.33333 12.7744 9.45C12.1744 10.5667 11.4327 11.6167 10.5494 12.6L12.9494 15.05L12.1994 17.1L9.09937 14L4.09937 19Z" fill="#008DDD"/>
</svg>
