<svg width="48" height="48" viewBox="0 0 48 48" fill="none" xmlns="http://www.w3.org/2000/svg">
<g clip-path="url(#clip0_1_633)">
<path d="M42.0001 9.07203H35.7721C35.8298 8.11471 35.7119 7.1549 35.4241 6.24003C35.0168 4.94799 34.2695 3.78935 33.2602 2.88567C32.251 1.982 31.0171 1.3666 29.6881 1.10403C28.5772 0.876143 27.4294 0.898319 26.3281 1.16895C25.2266 1.43959 24.1993 1.95191 23.3204 2.66876C22.4417 3.38561 21.7334 4.28903 21.247 5.31353C20.7605 6.33803 20.5081 7.45793 20.5081 8.59203C20.5081 8.74803 20.5081 8.91603 20.5081 9.07203H14.2921C12.9405 9.07521 11.6451 9.61354 10.6894 10.5693C9.73364 11.525 9.19529 12.8204 9.19212 14.172V19.728C8.14061 19.6445 7.08318 19.7794 6.08639 20.1246C5.08959 20.4696 4.175 21.0173 3.40014 21.733C2.6253 22.4487 2.00697 23.317 1.58408 24.2835C1.16119 25.2498 0.942871 26.2932 0.942871 27.348C0.942871 28.4028 1.16119 29.4464 1.58408 30.4127C2.00697 31.379 2.6253 32.2473 3.40014 32.9631C4.175 33.6788 5.08959 34.2264 6.08639 34.5716C7.08318 34.9165 8.14061 35.0516 9.19212 34.968V41.88C9.19529 43.2317 9.73364 44.5271 10.6894 45.4828C11.6451 46.4385 12.9405 46.9768 14.2921 46.98H42.0001C43.3517 46.9768 44.6471 46.4385 45.6028 45.4828C46.5586 44.5271 47.0969 43.2317 47.1001 41.88V14.172C47.0969 12.8204 46.5586 11.525 45.6028 10.5693C44.6471 9.61354 43.3517 9.07521 42.0001 9.07203ZM44.1001 41.88C44.0969 42.4361 43.8746 42.9684 43.4815 43.3615C43.0885 43.7546 42.5561 43.9768 42.0001 43.98H14.2921C13.7361 43.9768 13.2038 43.7546 12.8107 43.3615C12.4175 42.9684 12.1953 42.4361 12.1921 41.88V33.096C12.1857 32.8593 12.1237 32.6273 12.0111 32.4189C11.8985 32.2104 11.7386 32.0313 11.5441 31.896C11.2922 31.7264 10.9959 31.6345 10.6921 31.632C10.5121 31.6357 10.3339 31.6681 10.1641 31.728C9.38334 32.0204 8.53827 32.0972 7.71761 31.9501C6.89694 31.8033 6.13095 31.4382 5.50004 30.8933C4.86912 30.3483 4.39655 29.6435 4.13193 28.8528C3.86732 28.0623 3.8204 27.215 3.99612 26.4C4.13505 25.7469 4.4132 25.1314 4.81161 24.5955C5.21001 24.0595 5.71929 23.616 6.30473 23.2947C6.89018 22.9736 7.538 22.7823 8.20403 22.7343C8.87004 22.6862 9.53861 22.7823 10.1641 23.016C10.3921 23.0988 10.6366 23.1255 10.8771 23.094C11.1176 23.0623 11.3469 22.9734 11.5457 22.8345C11.7446 22.6957 11.9071 22.5111 12.0196 22.2962C12.1321 22.0814 12.1913 21.8426 12.1921 21.6V14.172C12.1921 13.6151 12.4134 13.0809 12.8072 12.6871C13.201 12.2933 13.7352 12.072 14.2921 12.072H22.3321C22.5707 12.0739 22.8064 12.0183 23.0191 11.91C23.2318 11.8017 23.4154 11.6438 23.5541 11.4496C23.693 11.2555 23.7832 11.0308 23.8169 10.7945C23.8507 10.5582 23.827 10.3173 23.7481 10.092C23.5915 9.60734 23.5105 9.1014 23.5081 8.59203C23.5069 7.91708 23.6527 7.24994 23.9354 6.63709C24.2183 6.02424 24.6313 5.48042 25.1458 5.04347C25.6603 4.60653 26.2637 4.28697 26.9143 4.10708C27.5648 3.92717 28.2467 3.89123 28.9126 4.00176C29.5784 4.1123 30.2122 4.36664 30.7697 4.74708C31.3273 5.12754 31.7951 5.62494 32.1409 6.20468C32.4865 6.7844 32.7017 7.4325 32.7713 8.10387C32.8409 8.77522 32.7634 9.45369 32.5441 10.092C32.4652 10.3173 32.4416 10.5582 32.4754 10.7945C32.5091 11.0308 32.5993 11.2555 32.738 11.4496C32.8769 11.6438 33.0604 11.8017 33.2731 11.91C33.4858 12.0183 33.7214 12.0739 33.9601 12.072H42.0001C42.557 12.072 43.0912 12.2933 43.4851 12.6871C43.8788 13.0809 44.1001 13.6151 44.1001 14.172V41.88Z" fill="#1D1C1D"/>
<path d="M35.9998 25.8121H29.9998V20.4001C29.9998 20.0023 29.8417 19.6207 29.5604 19.3395C29.2792 19.0582 28.8976 18.9001 28.4998 18.9001C28.102 18.9001 27.7204 19.0582 27.4391 19.3395C27.1579 19.6207 26.9998 20.0023 26.9998 20.4001V25.8121H21.5998C21.2267 25.8456 20.8796 26.0175 20.6267 26.2939C20.374 26.5704 20.2339 26.9314 20.2339 27.3061C20.2339 27.6807 20.374 28.0419 20.6267 28.3183C20.8796 28.5948 21.2267 28.7667 21.5998 28.8001H27.0118V34.8001C27.0452 35.1732 27.2171 35.5203 27.4936 35.7732C27.77 36.0259 28.1312 36.166 28.5058 36.166C28.8803 36.166 29.2415 36.0259 29.518 35.7732C29.7944 35.5203 29.9663 35.1732 29.9998 34.8001V28.8001H35.9998C36.3976 28.8001 36.7792 28.642 37.0604 28.3608C37.3417 28.0795 37.4998 27.6979 37.4998 27.3001C37.4998 26.9023 37.3417 26.5207 37.0604 26.2395C36.7792 25.9582 36.3976 25.8001 35.9998 25.8001V25.8121Z" fill="#1D1C1D"/>
</g>
<defs>
<clipPath id="clip0_1_633">
<rect width="48" height="48" fill="white"/>
</clipPath>
</defs>
</svg>

