<svg width="48" height="48" viewBox="0 0 48 48" fill="none" xmlns="http://www.w3.org/2000/svg">
<g clip-path="url(#clip0_1_670)">
<path d="M34.8002 16.0199H21.1802C20.7824 16.0199 20.4008 16.178 20.1195 16.4592C19.8383 16.7406 19.6802 17.1221 19.6802 17.5199C19.6802 17.9177 19.8383 18.2993 20.1195 18.5805C20.4008 18.8619 20.7824 19.0199 21.1802 19.0199H34.8002C35.198 19.0199 35.5796 18.8619 35.8608 18.5805C36.1422 18.2993 36.3002 17.9177 36.3002 17.5199C36.3002 17.1221 36.1422 16.7406 35.8608 16.4592C35.5796 16.178 35.198 16.0199 34.8002 16.0199Z" fill="#1D1C1D"/>
<path d="M34.8002 21.672H21.1802C20.7824 21.672 20.4008 21.8301 20.1195 22.1113C19.8383 22.3926 19.6802 22.7742 19.6802 23.172C19.6802 23.5698 19.8383 23.9514 20.1195 24.2326C20.4008 24.5139 20.7824 24.672 21.1802 24.672H34.8002C35.198 24.672 35.5796 24.5139 35.8608 24.2326C36.1422 23.9514 36.3002 23.5698 36.3002 23.172C36.3002 22.7742 36.1422 22.3926 35.8608 22.1113C35.5796 21.8301 35.198 21.672 34.8002 21.672Z" fill="#1D1C1D"/>
<path d="M34.7999 27.5999H28.4399C28.042 27.5999 27.6605 27.758 27.3793 28.0392C27.0979 28.3205 26.9399 28.7021 26.9399 29.0999C26.9399 29.4977 27.0979 29.8793 27.3793 30.1605C27.6605 30.4418 28.042 30.5999 28.4399 30.5999H34.7999C35.1977 30.5999 35.5792 30.4418 35.8606 30.1605C36.1418 29.8793 36.2999 29.4977 36.2999 29.0999C36.2999 28.7021 36.1418 28.3205 35.8606 28.0392C35.5792 27.758 35.1977 27.5999 34.7999 27.5999Z" fill="#1D1C1D"/>
<path d="M32.3996 0.900146H18.1556C16.9771 0.903323 15.8477 1.37377 15.0154 2.20834C14.1831 3.04291 13.7157 4.17348 13.7157 5.35215V28.5242L8.65166 30.1082C8.06003 30.2913 7.53386 30.6414 7.13637 31.1163C6.73889 31.5912 6.48699 32.1708 6.41096 32.7855C6.33492 33.4001 6.43797 34.0236 6.70773 34.5812C6.97749 35.1385 7.40249 35.6064 7.93166 35.9282L8.14766 36.0602L4.79966 38.9641C4.46789 39.254 4.19946 39.6091 4.01114 40.0074C3.82281 40.4057 3.71864 40.8384 3.70512 41.2788C3.69161 41.719 3.76905 42.1575 3.9326 42.5666C4.09614 42.9756 4.34229 43.3465 4.65566 43.6562L7.45166 46.4641C7.76385 46.7736 8.13594 47.016 8.54513 47.1765C8.95431 47.337 9.39198 47.4123 9.83129 47.3978C10.2706 47.383 10.7023 47.2789 11.0999 47.0916C11.4975 46.9043 11.8527 46.6376 12.1437 46.3082L15.0476 42.9962L15.1796 43.2122C15.5047 43.7369 15.9731 44.1573 16.5298 44.4239C17.0864 44.6904 17.7077 44.7918 18.3203 44.716C18.9328 44.6403 19.5106 44.3905 19.9855 43.9963C20.4604 43.6021 20.8124 43.0802 20.9996 42.4921L22.3916 38.0282H37.9916C38.5774 38.033 39.1582 37.9221 39.7009 37.7019C40.2436 37.4818 40.7377 37.1568 41.1545 36.7455C41.5714 36.334 41.903 35.8446 42.1304 35.3049C42.3578 34.765 42.4765 34.1858 42.4796 33.6002V11.1961L32.3996 0.900146ZM33.2636 6.07215L37.4156 10.3081H33.2516L33.2636 6.07215ZM18.1676 41.6041C18.1544 41.6474 18.1271 41.685 18.0902 41.711C18.0533 41.737 18.0088 41.7501 17.9636 41.7481C17.9276 41.7507 17.8918 41.743 17.8598 41.7261C17.828 41.709 17.8016 41.6835 17.7836 41.6522L15.6716 38.1962C15.6518 38.1666 15.6251 38.1423 15.5938 38.1255C15.5623 38.1088 15.5273 38.1002 15.4916 38.1002C15.4619 38.0993 15.4322 38.1053 15.4052 38.1177C15.3781 38.1301 15.3542 38.1489 15.3356 38.1721L9.92366 44.3281C9.90503 44.3514 9.88124 44.37 9.85416 44.3826C9.82709 44.3951 9.79746 44.4011 9.76766 44.4002C9.71331 44.4193 9.654 44.4193 9.59966 44.4002L6.80366 41.5322C6.764 41.4899 6.74193 41.4341 6.74193 41.3762C6.74193 41.3183 6.764 41.2625 6.80366 41.2201L12.9597 35.8202C12.9869 35.8 13.0091 35.7738 13.0244 35.7436C13.0397 35.7133 13.0477 35.68 13.0477 35.6461C13.0477 35.6122 13.0397 35.5789 13.0244 35.5487C13.0091 35.5184 12.9869 35.4922 12.9597 35.4721L9.50366 33.3602C9.46412 33.3459 9.42992 33.32 9.40574 33.2854C9.38157 33.2511 9.3686 33.2102 9.3686 33.1682C9.3686 33.1262 9.38157 33.0852 9.40574 33.0507C9.42992 33.0163 9.46412 32.9904 9.50366 32.9762L21.6596 29.1721H21.7196C21.7538 29.1699 21.7879 29.1763 21.8188 29.1906C21.8498 29.205 21.8767 29.2271 21.8971 29.2545C21.9173 29.2819 21.9304 29.3141 21.935 29.3479C21.9397 29.3817 21.9358 29.4162 21.9236 29.4481L18.1676 41.6041ZM38.0276 35.0282H23.3636L24.8396 30.3362C24.9904 29.8544 25.0255 29.3441 24.9424 28.8462C24.8591 28.3484 24.6599 27.8771 24.3608 27.4704C24.0617 27.0639 23.6711 26.7334 23.2207 26.5057C22.7702 26.2782 22.2724 26.1597 21.7676 26.1601C21.4423 26.16 21.1187 26.2086 20.8076 26.3041L16.7156 27.6002V5.35215C16.7156 4.96912 16.867 4.60161 17.1367 4.32964C17.4064 4.05768 17.7727 3.90331 18.1556 3.90015H30.2516V10.6201C30.2548 11.3341 30.5407 12.0178 31.0468 12.5216C31.5527 13.0253 32.2376 13.3081 32.9516 13.3081H39.4796V33.6002C39.4733 33.981 39.3176 34.3443 39.046 34.6115C38.7743 34.8785 38.4086 35.0282 38.0276 35.0282Z" fill="#1D1C1D"/>
</g>
<defs>
<clipPath id="clip0_1_670">
<rect width="48" height="48" fill="white"/>
</clipPath>
</defs>
</svg>
