<svg width="48" height="48" viewBox="0 0 48 48" fill="none" xmlns="http://www.w3.org/2000/svg">
<g clip-path="url(#clip0_1_659)">
<path d="M39.6959 7.19985C37.8926 5.12652 35.6652 3.46438 33.1644 2.32578C30.6636 1.18716 27.9476 0.598602 25.1999 0.599856C24.3531 0.602052 23.5074 0.658165 22.6679 0.767855C19.4055 1.18612 16.3052 2.43543 13.6644 4.39603C11.0236 6.35662 8.93065 8.96277 7.58635 11.9646C6.24205 14.9664 5.69142 18.2633 5.98725 21.5389C6.28308 24.8146 7.41546 27.9594 9.27582 30.6719L3.51582 38.0759C2.84979 38.9289 2.43702 39.9522 2.32465 41.0286C2.21229 42.105 2.40484 43.1914 2.88034 44.1637C3.35583 45.1359 4.09512 45.9549 5.01379 46.5272C5.93245 47.0994 6.99351 47.4018 8.07582 47.3998C8.95003 47.4011 9.81297 47.2028 10.599 46.8201C11.385 46.4375 12.0734 45.8806 12.6118 45.1918L18.3599 37.8718C21.4955 39.0609 24.8858 39.4164 28.1999 38.9039C31.6122 38.3853 34.8216 36.9566 37.4906 34.7679C40.1594 32.5793 42.1889 29.7116 43.3655 26.4668C44.5421 23.222 44.8223 19.7199 44.1764 16.3293C43.5306 12.9388 41.9828 9.78498 39.6959 7.19985ZM41.3519 22.0559C40.8888 25.534 39.3156 28.77 36.866 31.2824C34.4163 33.7946 31.2212 35.4492 27.7559 35.9999C26.918 36.1281 26.0715 36.1923 25.2239 36.1918C22.8605 36.1966 20.525 35.6804 18.3839 34.6798C18.203 34.5965 18.0069 34.5516 17.8079 34.5479C17.6163 34.5477 17.4273 34.5909 17.255 34.674C17.0825 34.7571 16.931 34.878 16.8119 35.0279L10.2598 43.4278C9.99082 43.742 9.65524 43.992 9.27745 44.1601C8.89968 44.3283 8.48919 44.4102 8.07582 44.3998C7.55686 44.3994 7.04847 44.2533 6.60846 43.9782C6.16846 43.7029 5.81454 43.3098 5.58697 42.8434C5.35939 42.3771 5.26732 41.8561 5.32122 41.34C5.37511 40.8238 5.57281 40.3332 5.89182 39.9239L12.4558 31.5238C12.631 31.297 12.726 31.0185 12.726 30.7318C12.726 30.4452 12.631 30.1667 12.4558 29.9398C10.8025 27.8281 9.69727 25.3403 9.23848 22.6978C8.77969 20.0555 8.98162 17.3407 9.82629 14.7952C10.671 12.2498 12.1321 9.95284 14.0796 8.10897C16.0271 6.26508 18.4005 4.93153 20.9882 4.22715C23.576 3.52276 26.2977 3.46941 28.9112 4.07182C31.5245 4.67424 33.9483 5.91373 35.9666 7.67988C37.9848 9.44602 39.5349 11.684 40.4787 14.1943C41.4225 16.7048 41.7306 19.4095 41.3759 22.0679L41.3519 22.0559Z" fill="#1D1C1D"/>
<path d="M25.2 8.77185C22.4134 8.77725 19.7304 9.82832 17.6815 11.7171C15.6328 13.6059 14.3675 16.1949 14.136 18.9719H12.336C12.2353 18.9704 12.1364 18.9992 12.0522 19.0544C11.968 19.1097 11.9022 19.1889 11.8635 19.2819C11.8247 19.3749 11.8147 19.4775 11.8348 19.5762C11.8549 19.6749 11.9041 19.7654 11.976 19.8359L15.168 23.0399C15.2644 23.1338 15.3936 23.1863 15.528 23.1863C15.6625 23.1863 15.7917 23.1338 15.888 23.0399L19.092 19.8359C19.164 19.7654 19.2132 19.6749 19.2333 19.5762C19.2534 19.4775 19.2433 19.3749 19.2046 19.2819C19.1658 19.1889 19.1001 19.1097 19.0159 19.0544C18.9316 18.9992 18.8328 18.9704 18.732 18.9719H17.088C17.3058 17.0856 18.18 15.3362 19.5579 14.0298C20.9358 12.7235 22.7292 11.9435 24.6243 11.8265C26.5194 11.7095 28.3953 12.2629 29.9233 13.3899C31.4514 14.5169 32.5342 16.1456 32.9823 17.9906C33.4303 19.8357 33.2149 21.7796 32.3739 23.4818C31.5328 25.1841 30.1197 26.5362 28.3821 27.3013C26.6443 28.0665 24.6928 28.1958 22.8693 27.6669C21.0457 27.1378 19.4665 25.9842 18.408 24.4079C18.1861 24.0794 17.8432 23.8519 17.4543 23.7754C17.0652 23.6991 16.6618 23.7797 16.332 23.9999C16.0027 24.224 15.775 24.5689 15.6987 24.96C15.6223 25.3509 15.7033 25.7562 15.924 26.0878C16.9936 27.6772 18.456 28.9631 20.1691 29.8204C21.8823 30.678 23.788 31.0779 25.7014 30.9816C27.6147 30.8853 29.4706 30.296 31.089 29.2709C32.7073 28.2458 34.0332 26.8196 34.9378 25.1309C35.8425 23.4422 36.2952 21.5483 36.252 19.6329C36.2088 17.7177 35.671 15.8462 34.6911 14.1999C33.7113 12.5538 32.3224 11.1889 30.6594 10.2378C28.9965 9.28671 27.1158 8.78172 25.2 8.77185Z" fill="#1D1C1D"/>
</g>
<defs>
<clipPath id="clip0_1_659">
<rect width="48" height="48" fill="white"/>
</clipPath>
</defs>
</svg>
