<svg width="48" height="48" viewBox="0 0 48 48" fill="none" xmlns="http://www.w3.org/2000/svg">
<g clip-path="url(#clip0_1_646)">
<path d="M16.3802 47.1C15.9185 47.0979 15.4643 46.9813 15.0584 46.7608C14.6526 46.5405 14.3077 46.223 14.0545 45.8367C13.8013 45.4503 13.6478 45.0074 13.6076 44.5473C13.5674 44.0873 13.6419 43.6243 13.8242 43.2L20.1362 28.8H13.2002C12.5133 28.8042 11.8364 28.6345 11.2328 28.3065C10.6291 27.9784 10.1184 27.5029 9.74819 26.9242C9.37797 26.3457 9.16034 25.6825 9.11558 24.997C9.07082 24.3115 9.2004 23.6259 9.49223 23.004L18.6242 3.27597C18.9492 2.56403 19.4709 1.95983 20.1278 1.53461C20.7848 1.10937 21.5496 0.880852 22.3322 0.875977H31.9322C32.4036 0.876886 32.8671 0.996962 33.2796 1.22504C33.6923 1.45312 34.0404 1.78181 34.2918 2.18054C34.5434 2.57927 34.6899 3.03509 34.718 3.50565C34.7459 3.9762 34.6545 4.44621 34.4522 4.87197L28.0802 18.192H36.0002C36.8049 18.1892 37.5924 18.4244 38.2638 18.8679C38.9352 19.3116 39.4604 19.9439 39.7734 20.6852C40.0863 21.4266 40.173 22.2438 40.0227 23.0345C39.8723 23.825 39.4916 24.5534 38.9282 25.128L18.3842 46.248C18.1242 46.5168 17.8128 46.7307 17.4686 46.8771C17.1243 47.0235 16.7543 47.0992 16.3802 47.1ZM22.4042 25.824C22.6542 25.8253 22.8759 25.8525 23.0954 25.972C23.315 26.0916 23.5014 26.2637 23.6382 26.4729C23.7749 26.6822 23.8575 26.922 23.8788 27.171C23.9003 27.4202 23.8595 27.6705 23.7602 27.9L17.0282 43.332L36.7443 23.04C36.9003 22.8873 37.0059 22.6903 37.0467 22.4758C37.0875 22.2612 37.0616 22.0394 36.9722 21.84C36.8901 21.6413 36.75 21.4721 36.5702 21.3543C36.3903 21.2366 36.1791 21.1758 35.9642 21.18H25.7042C25.4508 21.1799 25.2017 21.1159 24.9794 20.9944C24.7571 20.8728 24.569 20.6973 24.4322 20.484C24.3014 20.267 24.2253 20.0214 24.2106 19.7683C24.1961 19.5153 24.2433 19.2625 24.3483 19.032L31.5483 3.88797H22.3322C22.1244 3.88808 21.921 3.94814 21.7466 4.06095C21.572 4.17375 21.4337 4.33454 21.3482 4.52397L12.2402 24.288C12.1642 24.451 12.1302 24.6306 12.1412 24.8103C12.1522 24.9898 12.2079 25.164 12.3033 25.3166C12.3987 25.4691 12.5307 25.5956 12.6873 25.6842C12.844 25.7727 13.0203 25.8208 13.2002 25.824H22.4042Z" fill="#1D1C1D"/>
</g>
<defs>
<clipPath id="clip0_1_646">
<rect width="48" height="48" fill="white"/>
</clipPath>
</defs>
</svg>
