<svg width="16" height="16" viewBox="0 0 16 16" fill="none" xmlns="http://www.w3.org/2000/svg">
<path d="M8.354 1.14601C8.30756 1.09945 8.25238 1.0625 8.19163 1.0373C8.13089 1.01209 8.06577 0.999115 8 0.999115C7.93423 0.999115 7.86911 1.01209 7.80837 1.0373C7.74762 1.0625 7.69245 1.09945 7.646 1.14601L1.646 7.14601C1.5996 7.19253 1.56282 7.24774 1.53777 7.30848C1.51272 7.36922 1.49988 7.4343 1.5 7.50001V14.5C1.5 14.6326 1.55268 14.7598 1.64645 14.8536C1.74022 14.9473 1.86739 15 2 15H6.5C6.63261 15 6.75979 14.9473 6.85355 14.8536C6.94732 14.7598 7 14.6326 7 14.5V10.5H9V14.5C9 14.6326 9.05268 14.7598 9.14645 14.8536C9.24022 14.9473 9.36739 15 9.5 15H14C14.1326 15 14.2598 14.9473 14.3536 14.8536C14.4473 14.7598 14.5 14.6326 14.5 14.5V7.50001C14.5001 7.4343 14.4873 7.36922 14.4622 7.30848C14.4372 7.24774 14.4004 7.19253 14.354 7.14601L13 5.79301V2.50001C13 2.3674 12.9473 2.24022 12.8536 2.14646C12.7598 2.05269 12.6326 2.00001 12.5 2.00001H11.5C11.3674 2.00001 11.2402 2.05269 11.1464 2.14646C11.0527 2.24022 11 2.3674 11 2.50001V3.79301L8.354 1.14601ZM2.5 14V7.70701L8 2.20701L13.5 7.70701V14H10V10C10 9.8674 9.94732 9.74022 9.85355 9.64645C9.75979 9.55269 9.63261 9.50001 9.5 9.50001H6.5C6.36739 9.50001 6.24022 9.55269 6.14645 9.64645C6.05268 9.74022 6 9.8674 6 10V14H2.5Z" fill="white"/>
</svg>
