<svg width="28" height="28" viewBox="0 0 28 28" fill="none" xmlns="http://www.w3.org/2000/svg">
<path d="M14 9.625C13.1347 9.625 12.2888 9.88159 11.5694 10.3623C10.8499 10.8431 10.2892 11.5263 9.95803 12.3258C9.62689 13.1252 9.54025 14.0049 9.70906 14.8535C9.87787 15.7022 10.2946 16.4817 10.9064 17.0936C11.5183 17.7054 12.2978 18.1221 13.1465 18.2909C13.9951 18.4597 14.8748 18.3731 15.6742 18.042C16.4737 17.7108 17.1569 17.1501 17.6377 16.4306C18.1184 15.7112 18.375 14.8653 18.375 14C18.375 12.8397 17.9141 11.7269 17.0936 10.9064C16.2731 10.0859 15.1603 9.625 14 9.625ZM14 16.625C13.4808 16.625 12.9733 16.471 12.5416 16.1826C12.1099 15.8942 11.7735 15.4842 11.5748 15.0045C11.3761 14.5249 11.3242 13.9971 11.4254 13.4879C11.5267 12.9787 11.7767 12.511 12.1438 12.1438C12.511 11.7767 12.9787 11.5267 13.4879 11.4254C13.9971 11.3242 14.5249 11.3761 15.0045 11.5748C15.4842 11.7735 15.8942 12.1099 16.1826 12.5416C16.471 12.9733 16.625 13.4808 16.625 14C16.625 14.6962 16.3484 15.3639 15.8562 15.8562C15.3639 16.3484 14.6962 16.625 14 16.625ZM26.25 6.125H1.75C1.51794 6.125 1.29538 6.21719 1.13128 6.38128C0.967187 6.54538 0.875 6.76794 0.875 7V21C0.875 21.2321 0.967187 21.4546 1.13128 21.6187C1.29538 21.7828 1.51794 21.875 1.75 21.875H26.25C26.4821 21.875 26.7046 21.7828 26.8687 21.6187C27.0328 21.4546 27.125 21.2321 27.125 21V7C27.125 6.76794 27.0328 6.54538 26.8687 6.38128C26.7046 6.21719 26.4821 6.125 26.25 6.125ZM21.1805 20.125H6.81953C6.52576 19.1314 5.98807 18.2272 5.25545 17.4945C4.52283 16.7619 3.61856 16.2242 2.625 15.9305V12.0695C3.61856 11.7758 4.52283 11.2381 5.25545 10.5055C5.98807 9.77283 6.52576 8.86856 6.81953 7.875H21.1805C21.4742 8.86856 22.0119 9.77283 22.7445 10.5055C23.4772 11.2381 24.3814 11.7758 25.375 12.0695V15.9305C24.3814 16.2242 23.4772 16.7619 22.7445 17.4945C22.0119 18.2272 21.4742 19.1314 21.1805 20.125ZM25.375 10.2123C24.3255 9.76105 23.4889 8.92452 23.0377 7.875H25.375V10.2123ZM4.96234 7.875C4.51105 8.92452 3.67452 9.76105 2.625 10.2123V7.875H4.96234ZM2.625 17.7877C3.67452 18.2389 4.51105 19.0755 4.96234 20.125H2.625V17.7877ZM23.0377 20.125C23.4889 19.0755 24.3255 18.2389 25.375 17.7877V20.125H23.0377Z" fill="white"/>
</svg>
