<svg width="29" height="28" viewBox="0 0 29 28" fill="none" xmlns="http://www.w3.org/2000/svg">
<path d="M7.33334 25.6667C6.69167 25.6667 6.14217 25.438 5.68484 24.9807C5.2275 24.5233 4.99922 23.9742 5 23.3333V9.33334C5 8.69168 5.22867 8.14218 5.686 7.68484C6.14333 7.22751 6.69245 6.99923 7.33334 7.00001H9.66667C9.66667 5.71668 10.1236 4.61807 11.0375 3.70418C11.9514 2.79029 13.05 2.33334 14.3333 2.33334C15.6167 2.33334 16.7153 2.79029 17.6292 3.70418C18.5431 4.61807 19 5.71668 19 7.00001H21.3333C21.975 7.00001 22.5245 7.22868 22.9818 7.68601C23.4392 8.14334 23.6674 8.69245 23.6667 9.33334V23.3333C23.6667 23.975 23.438 24.5245 22.9807 24.9818C22.5233 25.4392 21.9742 25.6675 21.3333 25.6667H7.33334ZM7.33334 23.3333H21.3333V9.33334H19V11.6667C19 11.9972 18.888 12.2745 18.664 12.4985C18.44 12.7225 18.1631 12.8341 17.8333 12.8333C17.5028 12.8333 17.2255 12.7213 17.0015 12.4973C16.7775 12.2733 16.6659 11.9965 16.6667 11.6667V9.33334H12V11.6667C12 11.9972 11.888 12.2745 11.664 12.4985C11.44 12.7225 11.1631 12.8341 10.8333 12.8333C10.5028 12.8333 10.2255 12.7213 10.0015 12.4973C9.7775 12.2733 9.66589 11.9965 9.66667 11.6667V9.33334H7.33334V23.3333ZM12 7.00001H16.6667C16.6667 6.35834 16.438 5.80884 15.9807 5.35151C15.5233 4.89418 14.9742 4.6659 14.3333 4.66668C13.6917 4.66668 13.1422 4.89534 12.6848 5.35268C12.2275 5.81001 11.9992 6.35912 12 7.00001Z" fill="white"/>
</svg>
